<svg width="118" height="36" viewBox="0 0 118 36" fill="none" xmlns="http://www.w3.org/2000/svg">
<rect x="10.2162" y="5.25" width="6.8175" height="25.25" fill="#D80032"/>
<path d="M39.75 12.5C39.75 9.73858 41.9886 7.5 44.75 7.5H46.5V36H44.75C41.9886 36 39.75 33.7614 39.75 31V12.5Z" fill="#D80032"/>
<path d="M111.25 0H113C115.761 0 118 2.23858 118 5V31C118 33.7614 115.761 36 113 36H111.25V0Z" fill="#D80032"/>
<rect y="30.5" width="27.5" height="5.5" rx="2.75" fill="#D80032"/>
<path d="M39.75 12.5C39.75 9.73858 41.9886 7.5 44.75 7.5H58.75V13H39.75V12.5Z" fill="#D80032"/>
<path d="M39.75 30.5H118V31C118 33.7614 115.761 36 113 36H44.75C41.9886 36 39.75 33.7614 39.75 31V30.5Z" fill="#D80032"/>
<path d="M0 2.75C0 1.23122 1.23122 0 2.75 0H113.138C115.823 0 118 2.17692 118 4.86229V5.5H2.75C1.23121 5.5 0 4.26878 0 2.75Z" fill="#D80032"/>
<path d="M72.6567 22.8695C72.6567 25.0332 71.9354 26.6312 70.493 27.6636C69.0646 28.6959 67.1555 29.2121 64.7655 29.2121C62.3755 29.2121 60.4593 28.6959 59.0168 27.6636C57.5884 26.6312 56.8743 25.019 56.8743 22.8271V20.3239C56.8743 18.8815 57.2137 17.6865 57.8925 16.739C58.5855 15.7773 59.5259 15.0702 60.7138 14.6177C61.9017 14.1651 63.2523 13.9389 64.7655 13.9389C66.2787 13.9389 67.6221 14.1651 68.7959 14.6177C69.9838 15.0702 70.9243 15.7702 71.6172 16.7177C72.3102 17.6653 72.6567 18.8532 72.6567 20.2815V22.8695ZM62.6018 23.2725C62.6018 23.8523 62.7927 24.2978 63.1745 24.6089C63.5705 24.9201 64.1008 25.0756 64.7655 25.0756C65.4301 25.0756 65.9534 24.9201 66.3352 24.6089C66.7312 24.2837 66.9292 23.8311 66.9292 23.2513V19.8997C66.9292 19.3199 66.7312 18.8744 66.3352 18.5633C65.9534 18.238 65.4301 18.0754 64.7655 18.0754C64.1008 18.0754 63.5705 18.2309 63.1745 18.542C62.7927 18.8532 62.6018 19.2986 62.6018 19.8785V23.2725ZM85.567 14.7237C85.7792 14.3419 86.0832 14.151 86.4792 14.151H90.3611C90.5167 14.151 90.651 14.2076 90.7642 14.3207C90.8773 14.4338 90.9339 14.5682 90.9339 14.7237V28.4273C90.9339 28.5828 90.8773 28.7172 90.7642 28.8303C90.651 28.9434 90.5167 29 90.3611 29H86.5216C86.366 29 86.2317 28.9434 86.1186 28.8303C86.0054 28.7172 85.9489 28.5828 85.9489 28.4273V21.8513L84.4003 24.9059C84.3579 25.0049 84.2589 25.118 84.1033 25.2453C83.9478 25.3726 83.7498 25.4362 83.5094 25.4362H82.0669C81.8265 25.4362 81.6285 25.3726 81.4729 25.2453C81.3174 25.118 81.2184 25.0049 81.176 24.9059L79.6274 21.8513V28.4273C79.6274 28.5828 79.5708 28.7172 79.4577 28.8303C79.3446 28.9434 79.2102 29 79.0547 29H75.2151C75.0596 29 74.9252 28.9434 74.8121 28.8303C74.699 28.7172 74.6424 28.5828 74.6424 28.4273V14.7237C74.6424 14.5682 74.699 14.4338 74.8121 14.3207C74.9252 14.2076 75.0596 14.151 75.2151 14.151H79.0971C79.4931 14.151 79.7971 14.3419 80.0092 14.7237L82.7881 19.8148L85.567 14.7237ZM102.975 14.151C104.304 14.151 105.463 14.3773 106.453 14.8298C107.443 15.2823 108.2 15.8975 108.723 16.6753C109.246 17.4531 109.508 18.3229 109.508 19.2845C109.508 20.8684 109.013 22.1129 108.023 23.018C107.033 23.9089 105.35 24.3544 102.975 24.3544H100.174V28.4273C100.174 28.5828 100.118 28.7172 100.005 28.8303C99.8916 28.9434 99.7572 29 99.6017 29H95.0409C94.8853 29 94.751 28.9434 94.6378 28.8303C94.5247 28.7172 94.4681 28.5828 94.4681 28.4273V14.7237C94.4681 14.5682 94.5247 14.4338 94.6378 14.3207C94.751 14.2076 94.8853 14.151 95.0409 14.151H102.975ZM102.89 20.43C103.229 20.43 103.498 20.331 103.696 20.133C103.894 19.9209 103.993 19.6451 103.993 19.3057C103.993 18.9522 103.894 18.6623 103.696 18.436C103.498 18.2097 103.229 18.0966 102.89 18.0966H100.196V20.43H102.89Z" fill="#EDF2F4"/>
<rect x="21.1057" y="19.6667" width="14.25" height="4.25" fill="#EDF2F4"/>
</svg>
