<svg width="381" height="116" viewBox="0 0 381 116" fill="none" xmlns="http://www.w3.org/2000/svg">
<rect x="32.9192" y="16.9167" width="21.9675" height="81.3611" fill="#D80032"/>
<path d="M128.083 40.2779C128.083 31.38 135.297 24.1667 144.194 24.1667H149.833V116H144.194C135.297 116 128.083 108.787 128.083 99.889V40.2779Z" fill="#D80032"/>
<path d="M358.472 0H364.111C373.009 0 380.222 7.21319 380.222 16.1111V99.8889C380.222 108.787 373.009 116 364.111 116H358.472V0Z" fill="#D80032"/>
<rect y="98.2778" width="88.6111" height="17.7222" rx="8.86111" fill="#D80032"/>
<path d="M128.083 40.2779C128.083 31.3799 135.297 24.1667 144.194 24.1667H189.306V41.889H128.083V40.2779Z" fill="#D80032"/>
<path d="M128.083 98.2778H380.222V99.8889C380.222 108.787 373.009 116 364.111 116H144.195C135.297 116 128.083 108.787 128.083 99.8889V98.2778Z" fill="#D80032"/>
<path d="M0 8.86111C0 3.96725 3.96726 0 8.86111 0H364.555C373.208 0 380.222 7.01452 380.222 15.6674V17.7222H8.8611C3.96724 17.7222 0 13.755 0 8.86111Z" fill="#D80032"/>
<path d="M234.116 73.2461C234.116 80.2181 231.792 85.3673 227.144 88.6938C222.542 92.0203 216.39 93.6835 208.689 93.6835C200.988 93.6835 194.813 92.0203 190.165 88.6938C185.563 85.3673 183.262 80.1725 183.262 73.1094V65.0438C183.262 60.3958 184.355 56.5453 186.543 53.4922C188.775 50.3935 191.806 48.1151 195.633 46.6569C199.461 45.1987 203.813 44.4696 208.689 44.4696C213.565 44.4696 217.894 45.1987 221.676 46.6569C225.504 48.1151 228.534 50.3707 230.767 53.4238C233 56.4769 234.116 60.3047 234.116 64.9071V73.2461ZM201.717 74.5448C201.717 76.4131 202.332 77.8485 203.562 78.851C204.838 79.8535 206.547 80.3548 208.689 80.3548C210.83 80.3548 212.517 79.8535 213.747 78.851C215.023 77.8029 215.661 76.3447 215.661 74.4764V63.6767C215.661 61.8084 215.023 60.373 213.747 59.3705C212.517 58.3224 210.83 57.7984 208.689 57.7984C206.547 57.7984 204.838 58.2996 203.562 59.3022C202.332 60.3047 201.717 61.7401 201.717 63.6084V74.5448ZM275.716 46.9987C276.4 45.7683 277.379 45.1532 278.655 45.1532H291.164C291.665 45.1532 292.098 45.3354 292.462 45.7C292.827 46.0645 293.009 46.4974 293.009 46.9987V91.1545C293.009 91.6557 292.827 92.0886 292.462 92.4532C292.098 92.8177 291.665 93 291.164 93H278.792C278.291 93 277.858 92.8177 277.493 92.4532C277.129 92.0886 276.946 91.6557 276.946 91.1545V69.9652L271.957 79.8079C271.82 80.1269 271.501 80.4915 271 80.9016C270.498 81.3117 269.86 81.5168 269.086 81.5168H264.438C263.663 81.5168 263.025 81.3117 262.524 80.9016C262.023 80.4915 261.704 80.1269 261.567 79.8079L256.577 69.9652V91.1545C256.577 91.6557 256.395 92.0886 256.03 92.4532C255.666 92.8177 255.233 93 254.732 93H242.36C241.859 93 241.426 92.8177 241.061 92.4532C240.697 92.0886 240.514 91.6557 240.514 91.1545V46.9987C240.514 46.4974 240.697 46.0645 241.061 45.7C241.426 45.3354 241.859 45.1532 242.36 45.1532H254.868C256.144 45.1532 257.124 45.7683 257.808 46.9987L266.762 63.4033L275.716 46.9987ZM331.807 45.1532C336.09 45.1532 339.827 45.8823 343.017 47.3404C346.206 48.7986 348.644 50.7809 350.33 53.2871C352.016 55.7934 352.859 58.5958 352.859 61.6945C352.859 66.7982 351.265 70.8082 348.075 73.7246C344.885 76.5954 339.462 78.0308 331.807 78.0308H322.784V91.1545C322.784 91.6557 322.602 92.0886 322.237 92.4532C321.873 92.8177 321.44 93 320.939 93H306.243C305.742 93 305.309 92.8177 304.944 92.4532C304.58 92.0886 304.397 91.6557 304.397 91.1545V46.9987C304.397 46.4974 304.58 46.0645 304.944 45.7C305.309 45.3354 305.742 45.1532 306.243 45.1532H331.807ZM331.533 65.3855C332.627 65.3855 333.493 65.0666 334.131 64.4286C334.769 63.7451 335.088 62.8565 335.088 61.7629C335.088 60.6236 334.769 59.6895 334.131 58.9604C333.493 58.2313 332.627 57.8668 331.533 57.8668H322.853V65.3855H331.533Z" fill="#2B2D42"/>
<rect x="68.0072" y="63.3706" width="45.9167" height="13.6944" fill="#2B2D42"/>
</svg>
